<svg xmlns="http://www.w3.org/2000/svg" viewBox="0 0 180 240" fill="none">
  <g stroke="#000" stroke-width="6" stroke-linecap="round">
    <path d="M91 14C113 37 119 73 96 104C73 135 54 168 69 214" />
    <path d="M107 24C127 50 132 82 109 114C86 146 67 180 83 226" />
    <path d="M123 38C141 62 145 95 124 126C103 157 81 188 95 234" />
    <path d="M68 84C52 96 40 112 33 132" />
    <path d="M145 90C145 107 141 122 130 136" />
    <path d="M120 146C109 156 100 169 94 184" />
    <path d="M73 161C68 177 69 194 78 210" />
  </g>
  <g fill="#000">
    <circle cx="91" cy="75" r="6" />
    <circle cx="76" cy="97" r="6" />
    <circle cx="102" cy="98" r="6" />
    <circle cx="140" cy="76" r="6" />
    <circle cx="125" cy="120" r="6" />
    <circle cx="145" cy="108" r="6" />
    <circle cx="27" cy="140" r="6" />
    <circle cx="34" cy="168" r="6" />
    <circle cx="58" cy="152" r="6" />
    <circle cx="78" cy="142" r="4" />
    <circle cx="104" cy="134" r="4" />
    <circle cx="98" cy="176" r="6" />
    <circle cx="56" cy="110" r="4" />
  </g>
</svg>
